<?xml version="1.0" encoding="UTF-8"?>
<svg id="Layer_2" data-name="Layer 2" xmlns="http://www.w3.org/2000/svg" viewBox="0 0 533.01 34.93">
  <defs>
    <style>
      .cls-1 {
        fill: #231f20;
      }
    </style>
  </defs>
  <g id="Layer_1-2" data-name="Layer 1">
    <g>
      <path class="cls-1" d="M6.04,7.13V15.23h13.7v3.67H6.04v11.96H0V2.66H21.07V7.13H6.04Z"/>
      <path class="cls-1" d="M50.43,2.66V20.71c0,5.24-3.22,10.76-12.57,10.76s-12.61-5.24-12.61-10.76V2.66h6V21.51c0,4.51,2.9,6.41,6.81,6.41s6.37-2.5,6.37-6.41V2.66h6Z"/>
      <path class="cls-1" d="M57.03,2.66h5.6V26.26h14.62v4.59h-15.91c-2.58,0-4.31-1.73-4.31-4.31V2.66Z"/>
      <path class="cls-1" d="M81.4,2.66h5.6V26.26h14.62v4.59h-15.91c-2.58,0-4.31-1.73-4.31-4.31V2.66Z"/>
      <path class="cls-1" d="M113.3,.36l-3.3,2.22c-1.37,1.13-1.41,2.42-1.41,3.34,0,8.26,19.74,10.88,19.74,19.22,0,6.2-11.12,9.79-16.11,9.79-6.12,0-12.17-6.04-7.57-11.64l8.54-4.51,.28,.32c-3.22,1.53-4.63,3.58-4.63,6.36,0,7.65,15.23,10.39,15.23,2.86,0-10.35-19.42-8.58-19.42-19.7,0-3.63,6.2-6.89,8.82-8.62,3.75,8.3,9.63,8.82,10.76,1.53h.28l-1.57,10.47c-3.3,0-7.01-.52-8.94-3.34-1.33-1.97-2.01-5.36-.68-8.3Z"/>
      <path class="cls-1" d="M153.05,7.25h-9.35V30.86h-5.52V7.25h-9.59V2.7h24.45V7.25Z"/>
      <path class="cls-1" d="M157.68,30.86h-6.89l11.56-28.2h8.78l11.56,28.2h-6.85l-2.22-5.52-13.74,.04-2.22,5.48Zm3.34-9.02h11.56l-5.24-13.98c-.36-1.13,.12-3.02,.12-4.19h-1.49c.04,1.21,.52,3.1,.2,4.23l-5.16,13.94Z"/>
      <path class="cls-1" d="M217.66,19.78c-.36,7.17-8.14,11.72-17.28,11.72-10.15,0-16.4-5.64-16.4-14.26,0-9.27,7.21-15.19,17.6-15.19,9.23,0,16.4,4.67,16.4,12.85l-5.76-.08c-.04-5.92-5.24-8.62-10.88-8.66-7.21-.04-11.52,4.31-11.52,10.88s4.11,10.47,11.2,10.47c6,0,10.43-2.94,11-7.73h5.64Z"/>
      <path class="cls-1" d="M246.01,26.35h4.55v4.59h-11.72l3.99-11.24h-14.3v11.16h-5.52V2.66h5.52V14.99h1.97l13.5-12.33h6.77l-10.19,9.63c-2.05,2.42-5.88,3.5-9.06,4.15l-.04,1.29c.97-.28,2.62-.93,3.79-1.25,1.41-.36,2.9-.52,4.31-.52,2.94,0,5.56,.69,6.32,1.85,1.85,.93,.85,3.79,.12,8.54Z"/>
      <path class="cls-1" d="M292.41,16.44c0,8.18-5.52,14.46-14.34,14.46l-13.13-.04V2.66h14.91c8.22,0,12.57,6.08,12.57,13.78Zm-6,.16c0-5.8-2.54-9.99-8.78-9.99h-6.57V26.91h5.08c6.69,0,10.27-3.79,10.27-10.31Z"/>
      <path class="cls-1" d="M316.09,1.17c.69,1.09,1.37,3.58,1.37,6.28,0,1.81-.44,4.19-2.14,4.19-3.02,0-4.75-8.38-10.35-8.38-1.37,0-5.64,.6-4.35,5.72,2.09,8.38,12.57,2.74,12.57,6.08,0,2.13-4.11,.73-6.16,.68-4.15-.08-6.32,4.59-3.95,8.34,4.39,6.89,12.09,7.49,13.94,3.42,2.09-4.59-6.85-5.68-7.45-3.54-.16,.64-.12,1.01,.64,1.89l-.2,.12c-2.14-2.18-4.27-6.08-3.14-7.49,2.74-3.46,13.21,2.05,10.63,9.1-2.54,6.89-22.76,5.84-22.76-4.83,0-8.5,12.41-7.69,14.7-7.69v-.24c-2.09-.08-14.26-.56-14.26-7.98,0-2.05,.93-6,5.4-6,5.64-.04,8.78,5.08,12.77,5.08,1.85,0,3.58-2.62,2.58-4.71l.16-.04Z"/>
      <path class="cls-1" d="M350,2.66l-10.71,28.2h-7.05l-12.08-28.2h5.96l8.7,23.36h2.01l7.29-23.36h5.88Z"/>
      <path class="cls-1" d="M360.39,7.21V15.23h16.8v3.67h-16.8v7.41h18.09v4.55h-23.61V2.66h23.61V7.21h-18.09Z"/>
      <path class="cls-1" d="M383.22,2.66h5.6V26.26h14.62v4.59h-15.91c-2.58,0-4.31-1.73-4.31-4.31V2.66Z"/>
      <path class="cls-1" d="M438.45,16.8c0,8.42-7.29,14.7-17.04,14.7s-17-6.28-17-14.7,7.49-14.74,17-14.74,17,6.28,17.04,14.74Zm-6.12,.16c0-6.57-4.27-10.35-10.68-10.43-6.2-.08-11,3.95-11,10.43s4.79,10.27,10.76,10.27,10.92-3.79,10.92-10.27Z"/>
      <path class="cls-1" d="M462.21,19.78l-12.29,.12v10.96h-5.52V2.66h16.6c5.32,0,10.27,2.13,10.27,8.38,0,4.87-3.02,8.7-9.06,8.74Zm-12.29-4.19h10.63c2.74,0,5.24-1.49,5.24-4.31s-2.5-4.11-5.16-4.11h-10.71V15.59Z"/>
      <path class="cls-1" d="M482.1,7.21V15.23h16.8v3.67h-16.8v7.41h18.09v4.55h-23.61V2.66h23.61V7.21h-18.09Z"/>
      <path class="cls-1" d="M505.46,2.7h16.84c5.56,0,10.43,1.53,10.43,6.85,0,3.95-2.7,6.04-6.36,6.61v1.33c3.75,.24,2.94,3.71,2.09,8.86h4.55v4.59h-11.72l3.99-11.24h-14.3v11.16h-5.52V2.7Zm5.52,12.69l11.2,.08c2.74,.04,5.08-1.41,5.08-4.15s-2.34-4.15-4.99-4.15h-11.28V15.39Z"/>
    </g>
  </g>
</svg>