<?xml version="1.0" encoding="UTF-8"?>
<svg id="Layer_2" data-name="Layer 2" xmlns="http://www.w3.org/2000/svg" viewBox="0 0 484.77 30.9">
  <defs>
    <style>
      .cls-1 {
        fill: #fff;
      }
    </style>
  </defs>
  <g id="Layer_1-2" data-name="Layer 1">
    <g>
      <path class="cls-1" d="M18.89,1.21c.69,1.09,1.37,3.54,1.37,6.24,0,1.77-.4,4.11-2.13,4.11-5,0-4.43-8.66-8.54-8.66-.97,0-3.71,.73-3.95,4.23v12.57c0,5.2,3.06,10.03,7.33,10.03,7.01,0,11.4-1.57,12.29-11h-2.62c0-4.39-.28-5.32-2.34-5.32-11.76,0-12.08,.08-12.25,3.3v3.75h-.32v-7.49h12.53c4.43,0,8.42,1.09,8.42,5.76h-2.98v11.52H13.01C5.6,30.25,0,25.42,0,18.21V6.69C0,4.31,.93,.36,5.36,.36c5.56-.04,6.93,5.56,10.84,5.56,1.85,0,3.99-2.62,2.46-4.63l.24-.08Z"/>
      <path class="cls-1" d="M33.19,2.09h16.84c5.56,0,10.43,1.53,10.43,6.85,0,3.95-2.7,6.04-6.36,6.61v1.33c3.75,.24,2.94,3.71,2.09,8.86h4.55v4.59h-11.72l3.99-11.24h-14.3v11.16h-5.52V2.09Zm5.52,12.69l11.2,.08c2.74,.04,5.08-1.41,5.08-4.15s-2.34-4.15-5-4.15h-11.28V14.78Z"/>
      <path class="cls-1" d="M68.95,30.25h-6.89L73.63,2.05h8.78l11.56,28.2h-6.85l-2.22-5.52-13.74,.04-2.22,5.48Zm3.34-9.02h11.56l-5.24-13.98c-.36-1.13,.12-3.02,.12-4.19h-1.49c.04,1.21,.52,3.1,.2,4.23l-5.16,13.94Z"/>
      <path class="cls-1" d="M116.2,19.18l-12.29,.12v10.96h-5.52V2.05h16.6c5.32,0,10.27,2.13,10.27,8.38,0,4.87-3.02,8.7-9.06,8.74Zm-12.29-4.19h10.63c2.74,0,5.24-1.49,5.24-4.31s-2.5-4.11-5.16-4.11h-10.72V14.99Z"/>
      <path class="cls-1" d="M159.14,2.05V30.25h-6.04v-12h-16.48v12h-6.04V2.05h6.04V13.9h16.48V2.05h6.04Z"/>
      <path class="cls-1" d="M166.14,25.66h7.81V6.65h-7.81V2.05h21.43V6.65h-7.57V25.66h7.57v4.59h-21.43v-4.59Z"/>
      <path class="cls-1" d="M225.31,19.18c-.36,7.17-8.14,11.72-17.28,11.72-10.15,0-16.4-5.64-16.4-14.26,0-9.27,7.21-15.19,17.6-15.19,9.22,0,16.4,4.67,16.4,12.85l-5.76-.08c-.04-5.92-5.24-8.62-10.88-8.66-7.21-.04-11.52,4.31-11.52,10.88s4.11,10.47,11.2,10.47c6,0,10.43-2.94,11-7.73h5.64Z"/>
      <path class="cls-1" d="M248.62,6.24h5.32c-6.61,12.77-9.14,24.05-16.36,24.05l.04-6.65c2.26,.16,4.19-2.38,5.48-5.2l5.52-12.21Zm-7.86-5.84c-.56,1.97,.6,4.67,2.5,4.67C247.21,5.08,250.4-.04,256.04,0c4.47,0,5.44,3.95,5.44,5.84l.04,18.73c0,4.71-4.07,5.84-8.54,5.68h-5.76v-7.61h.97c1.53,.12,3.38,7.21,4.83,7.21,2.09,0,2.38-1.05,2.38-5.44l-.08-18.13c0-2.82-1.69-4.07-3.38-4.07-5.64,0-7.61,8.58-10.63,8.58-1.73,0-2.17-2.38-2.17-4.15,0-2.74,.68-5.24,1.41-6.32l.24,.08Z"/>
      <path class="cls-1" d="M271.9,6.61V14.62h16.8v3.67h-16.8v7.41h18.09v4.55h-23.61V2.05h23.61V6.61h-18.09Z"/>
      <path class="cls-1" d="M324.67,22.04c0,5.96-6.97,8.78-15.63,8.78-13.33,0-15.43-5.88-15.43-9.75h6.57c-.04,3.83,3.42,5.4,8.82,5.4,6.28,0,9.3-1.49,9.3-4.35,0-7.77-24.29,.73-24.29-11.88,0-5.4,5.48-8.58,15.55-8.58,8.58,0,14.82,2.78,14.7,10.07h-6.16c0-4.19-3.38-5.84-8.54-5.84-5.48,0-8.98,1.37-8.98,4.67,0,7.09,24.09-.24,24.09,11.48Z"/>
      <path class="cls-1" d="M329.66,25.66h7.81V6.65h-7.81V2.05h21.43V6.65h-7.57V25.66h7.57v4.59h-21.43v-4.59Z"/>
      <path class="cls-1" d="M383.51,14.54c2.9,0,3.42,2.46,3.42,4.31v6.49l4.39,.32v4.59h-10.03l3.18-11.36h-1.37c-1.01,7.21-6,11.88-13.17,11.88-8.02,0-14.3-5.88-14.3-14.38s6.57-15.03,16.11-15.03c6.12,0,13.29,3.34,13.7,10.59l-5.28-.12c-.4-3.42-3.95-5.56-8.58-5.56-6.81,0-9.95,4.31-9.95,10.07,0,6.04,4.67,9.35,9.75,9.35,4.11,0,9.02-2.14,9.71-6.81h-9.87v-4.35h12.29Z"/>
      <path class="cls-1" d="M403,30.25h-5.96l-.08-28.2h7.77l8.94,13.7c1.65,3.63,2.7,8.82,3.54,12.73l1.33-.28c-.85-3.91-2.09-9.06-2.09-13.05V2.05h6V30.25h-7.41l-8.3-12.04c-2.26-4.15-3.87-10.11-5.04-14.66l-1.33,.32c1.17,4.55,2.62,10.59,2.62,15.31v11.08Z"/>
      <path class="cls-1" d="M433.85,6.61V14.62h16.8v3.67h-16.8v7.41h18.09v4.55h-23.61V2.05h23.61V6.61h-18.09Z"/>
      <path class="cls-1" d="M457.21,2.09h16.84c5.56,0,10.43,1.53,10.43,6.85,0,3.95-2.7,6.04-6.36,6.61v1.33c3.75,.24,2.94,3.71,2.09,8.86h4.55v4.59h-11.72l3.99-11.24h-14.3v11.16h-5.52V2.09Zm5.52,12.69l11.2,.08c2.74,.04,5.08-1.41,5.08-4.15s-2.34-4.15-4.99-4.15h-11.28V14.78Z"/>
    </g>
  </g>
</svg>