<?xml version="1.0" encoding="UTF-8"?>
<svg id="Layer_2" data-name="Layer 2" xmlns="http://www.w3.org/2000/svg" viewBox="0 0 149.87 31.5">
  <defs>
    <style>
      .cls-1 {
        fill: #231f20;
      }
    </style>
  </defs>
  <g id="Layer_1-2" data-name="Layer 1">
    <g>
      <path class="cls-1" d="M23,25.7h4.55v4.59H15.83l3.99-11.24H5.52v11.16H0V2.01H5.52V14.34h1.97L20.99,2.01h6.77l-10.19,9.63c-2.05,2.42-5.88,3.5-9.06,4.15l-.04,1.29c.97-.28,2.62-.93,3.79-1.25,1.41-.36,2.9-.52,4.31-.52,2.94,0,5.56,.69,6.32,1.85,1.85,.93,.85,3.79,.12,8.54Z"/>
      <path class="cls-1" d="M47.69,23.61c-1.09,4.31-.85,6.49,.36,6.81,2.82,.77,4.07-7.81,1.97-8.02-.64-.08-1.01,0-1.77,.93l-.16-.16c1.81-2.58,5.36-5.28,6.93-4.35,3.79,2.26-1.81,12.21-7.41,12.21-2.26,0-5-1.77-6.08-3.83l5.88-16.64h-.44c-4.19,12.69-8.7,20.95-11.84,20.95-4.71,0-6.77-3.5-6.77-6.57,0-9.47,20.58-17.56,20.75-23.49,0-.72-.28-.93-.77-.93-3.1-.04-10.31,11-14.38,11-2.01,0-2.98-2.46-2.98-4.27,0-2.82,.69-5.4,1.37-6.53l.08,.12c-1.33,2.94,.73,4.23,2.62,4.23,5.68,0,9.63-5.08,13.94-5.08,2.01,0,4.27,1.73,3.58,6.28-.52,3.34-3.87,13.46-4.87,17.32Zm.24-18.81c-6.69,6.97-13.17,9.91-13.49,17.24-.08,1.81,.72,3.02,2.46,3.02,5.44,0,8.66-11.4,11.24-20.06l-.2-.2Z"/>
      <path class="cls-1" d="M82.29,30.21h-9.47l-6-13.74c-.93-3.87-1.21-9.23-1.69-13.17l-1.37,.16c.52,3.99,1.57,9.22,1.61,13.21l.08,13.54h-6.08V2.01h9.51l8.3,26.26h.76L86.28,2.01h9.47V30.21h-6.04l.04-13.45c.04-4.03,1.09-9.27,1.57-13.25l-1.33-.16c-.48,3.99-.77,9.31-1.69,13.21l-6,13.66Z"/>
      <path class="cls-1" d="M117.97,23.61c-1.09,4.31-.85,6.49,.36,6.81,2.82,.77,4.07-7.81,1.97-8.02-.64-.08-1.01,0-1.77,.93l-.16-.16c1.81-2.58,5.36-5.28,6.93-4.35,3.79,2.26-1.81,12.21-7.41,12.21-2.26,0-5-1.77-6.08-3.83l5.88-16.64h-.44c-4.19,12.69-8.7,20.95-11.84,20.95-4.71,0-6.77-3.5-6.77-6.57,0-9.47,20.58-17.56,20.75-23.49,0-.72-.28-.93-.76-.93-3.1-.04-10.31,11-14.38,11-2.01,0-2.98-2.46-2.98-4.27,0-2.82,.68-5.4,1.37-6.53l.08,.12c-1.33,2.94,.72,4.23,2.62,4.23,5.68,0,9.63-5.08,13.94-5.08,2.01,0,4.27,1.73,3.58,6.28-.52,3.34-3.87,13.46-4.87,17.32Zm.24-18.81c-6.69,6.97-13.17,9.91-13.5,17.24-.08,1.81,.73,3.02,2.46,3.02,5.44,0,8.66-11.4,11.24-20.06l-.2-.2Z"/>
      <path class="cls-1" d="M129.65,2.01h5.6V25.62h14.62v4.59h-15.91c-2.58,0-4.31-1.73-4.31-4.31V2.01Z"/>
    </g>
  </g>
</svg>