<?xml version="1.0" encoding="UTF-8"?>
<svg id="Layer_2" data-name="Layer 2" xmlns="http://www.w3.org/2000/svg" viewBox="0 0 545.06 34.93">
  <defs>
    <style>
      .cls-1 {
        fill: #fff;
      }
    </style>
  </defs>
  <g id="Layer_1-2" data-name="Layer 1">
    <g>
      <path class="cls-1" d="M10.28,.36l-3.3,2.21c-1.37,1.13-1.41,2.42-1.41,3.34,0,8.26,19.74,10.88,19.74,19.21,0,6.2-11.12,9.79-16.11,9.79-6.12,0-12.17-6.04-7.57-11.64l8.54-4.51,.28,.32c-3.22,1.53-4.63,3.58-4.63,6.36,0,7.65,15.23,10.39,15.23,2.86C21.03,17.97,1.62,19.74,1.62,8.62,1.62,5,7.82,1.73,10.44,0c3.75,8.3,9.63,8.82,10.76,1.53h.28l-1.57,10.47c-3.3,0-7.01-.52-8.94-3.34-1.33-1.97-2.01-5.36-.68-8.3Z"/>
      <path class="cls-1" d="M61.39,16.8c0,8.42-7.29,14.7-17.04,14.7s-17-6.28-17-14.7S34.84,2.05,44.35,2.05s17,6.28,17.04,14.74Zm-6.12,.16c0-6.57-4.27-10.35-10.67-10.43-6.2-.08-11,3.95-11,10.43s4.79,10.27,10.76,10.27,10.92-3.79,10.92-10.27Z"/>
      <path class="cls-1" d="M73.35,7.13V15.23h13.7v3.67h-13.7v11.96h-6.04V2.66h21.07V7.13h-15.03Z"/>
      <path class="cls-1" d="M114.07,7.25h-9.35V30.86h-5.52V7.25h-9.59V2.7h24.45V7.25Z"/>
      <path class="cls-1" d="M162.24,2.66l-10.27,28.2h-7.45l-4.91-26.06h-1.33l-5.16,26.06h-7.17L115.35,2.66h5.96l6.85,20.3,.2,6.2h1.37l.2-6.2,5.92-20.3h6.16l6.08,20.26,.08,6.24h1.37l.2-6.2,6.61-20.3h5.88Z"/>
      <path class="cls-1" d="M168.44,30.86h-6.89l11.56-28.2h8.78l11.56,28.2h-6.85l-2.22-5.52-13.74,.04-2.22,5.48Zm3.34-9.02h11.56l-5.24-13.98c-.36-1.13,.12-3.02,.12-4.19h-1.49c.04,1.21,.52,3.1,.2,4.23l-5.16,13.94Z"/>
      <path class="cls-1" d="M197.84,2.7h16.84c5.56,0,10.43,1.53,10.43,6.85,0,3.95-2.7,6.04-6.36,6.61v1.33c3.75,.24,2.94,3.71,2.09,8.86h4.55v4.59h-11.72l3.99-11.24h-14.3v11.16h-5.52V2.7Zm5.52,12.69l11.2,.08c2.74,.04,5.08-1.41,5.08-4.15s-2.34-4.15-5-4.15h-11.28V15.39Z"/>
      <path class="cls-1" d="M235.78,7.21V15.23h16.8v3.67h-16.8v7.41h18.09v4.55h-23.61V2.66h23.61V7.21h-18.09Z"/>
      <path class="cls-1" d="M297.08,16.44c0,8.18-5.52,14.46-14.34,14.46l-13.13-.04V2.66h14.91c8.22,0,12.57,6.08,12.57,13.78Zm-6,.16c0-5.8-2.54-9.99-8.78-9.99h-6.57V26.91h5.08c6.69,0,10.27-3.79,10.27-10.31Z"/>
      <path class="cls-1" d="M308.56,7.21V15.23h16.8v3.67h-16.8v7.41h18.09v4.55h-23.61V2.66h23.61V7.21h-18.09Z"/>
      <path class="cls-1" d="M358.5,.08c3.06,.2,4.96,1.61,4.39,5.04-1.01,5.88-10.03,21.51-23.81,24.94l-4.35,1.09c-.28,.48,.52,1.57-.16,1.81-.56,.16-1.05-.56-.6-1.33l4.31-7.49,2.21-.28c2.7-3.99,5-7.85,5-13.05,0-6.85-5.92-8.66-11.16-5.24-5.36,3.46-5.04,11.84,2.22,11.6,2.9-.08,6.32-3.75,7.94-6.61l.2,.28c-1.45,2.42-4.99,6.49-7.41,8.46-3.18,2.58-8.86,1.77-8.58-4.83,.2-4.47,2.66-7.29,6.45-9.99,4.51-3.22,15.47-5.76,15.47,2.46,0,6.45-5.36,11.68-9.55,16.84,6.77-1.05,18.17-5.88,18.17-13.7,0-2.58-3.42-5.8-5.84-2.38l-.16-.08,.6-.77L358.5,.08Z"/>
      <path class="cls-1" d="M372.43,7.21V15.23h16.8v3.67h-16.8v7.41h18.09v4.55h-23.61V2.66h23.61V7.21h-18.09Z"/>
      <path class="cls-1" d="M395.27,2.66h5.6V26.27h14.62v4.59h-15.91c-2.58,0-4.31-1.73-4.31-4.31V2.66Z"/>
      <path class="cls-1" d="M450.5,16.8c0,8.42-7.29,14.7-17.04,14.7s-17-6.28-17-14.7,7.49-14.74,17-14.74,17,6.28,17.04,14.74Zm-6.12,.16c0-6.57-4.27-10.35-10.68-10.43-6.2-.08-11,3.95-11,10.43s4.79,10.27,10.76,10.27,10.92-3.79,10.92-10.27Z"/>
      <path class="cls-1" d="M474.26,19.78l-12.29,.12v10.96h-5.52V2.66h16.6c5.32,0,10.27,2.13,10.27,8.38,0,4.87-3.02,8.7-9.06,8.74Zm-12.29-4.19h10.63c2.74,0,5.24-1.49,5.24-4.31s-2.5-4.11-5.16-4.11h-10.71V15.59Z"/>
      <path class="cls-1" d="M494.15,7.21V15.23h16.8v3.67h-16.8v7.41h18.09v4.55h-23.61V2.66h23.61V7.21h-18.09Z"/>
      <path class="cls-1" d="M517.51,2.7h16.84c5.56,0,10.43,1.53,10.43,6.85,0,3.95-2.7,6.04-6.37,6.61v1.33c3.75,.24,2.94,3.71,2.09,8.86h4.55v4.59h-11.72l3.99-11.24h-14.3v11.16h-5.52V2.7Zm5.52,12.69l11.2,.08c2.74,.04,5.08-1.41,5.08-4.15s-2.34-4.15-5-4.15h-11.28V15.39Z"/>
    </g>
  </g>
</svg>