<?xml version="1.0" encoding="UTF-8"?>
<svg id="Layer_2" data-name="Layer 2" xmlns="http://www.w3.org/2000/svg" viewBox="0 0 127.56 39.64">
  <defs>
    <style>
      .cls-1 {
        fill: #231f20;
      }
    </style>
  </defs>
  <g id="Layer_1-2" data-name="Layer 1">
    <g>
      <path class="cls-1" d="M25.18,7.57V25.62c0,5.24-3.22,10.76-12.57,10.76S0,31.14,0,25.62V7.57H6V26.43c0,4.51,2.9,6.41,6.81,6.41s6.37-2.5,6.37-6.41V7.57h6Z"/>
      <path class="cls-1" d="M29.68,32.75l4.47-5.52V11.6c-.52-.12-1.09-.2-1.65-.2-1.45,0-2.66,1.25-3.75,2.74l-.4-.32,8.06-8.3,7.05,4.35-2.94,3.63v9.22l-4.95,5.52,4.95,2.98c1.61,0,2.98-1.53,3.87-2.74l.4,.32-8.06,8.3-7.05-4.35Z"/>
      <path class="cls-1" d="M55.9,2.86h5.56l-9.27,36.78h-5.56L55.9,2.86Z"/>
      <path class="cls-1" d="M92.88,7.57V25.62c0,5.24-3.22,10.76-12.57,10.76s-12.61-5.24-12.61-10.76V7.57h6V26.43c0,4.51,2.9,6.41,6.81,6.41s6.36-2.5,6.36-6.41V7.57h6Z"/>
      <path class="cls-1" d="M95.81,7.57h6.97l10.03,11.4,4.55-3.1c2.98-2.05-6.69-5.88-7.09-8.5-.16-1.13,1.25-2.7,2.22-3.5l4.47-3.87,.08,.2c-1.21,1.13-2.17,1.85-1.97,3.18,.44,3.34,7.49,4.51,7.98,8.02,.28,2.05-2.01,2.94-5.48,5.32l-4.23,2.86,14.22,16.19h-7.09l-11.52-13.21-7.77,5.28c-1.45,.85-1.85,1.69-1.65,2.38,.56,1.93,6.49-2.54,13.58-1.61l-3.79,9.14h-.24c-1.09-17.52-8.7-.89-13.05-.89-2.05,0-3.79-3.79,2.58-8.14l9.83-6.73-12.61-14.42Z"/>
    </g>
  </g>
</svg>