<?xml version="1.0" encoding="UTF-8"?>
<svg id="Layer_2" data-name="Layer 2" xmlns="http://www.w3.org/2000/svg" viewBox="0 0 300.92 38.48">
  <defs>
    <style>
      .cls-1 {
        fill: #231f20;
      }
    </style>
  </defs>
  <g id="Layer_1-2" data-name="Layer 1">
    <g>
      <path class="cls-1" d="M8.25,36.19H0L13.85,2.41h10.52l13.85,33.77h-8.2l-2.65-6.61-16.45,.05-2.65,6.56Zm4-10.81h13.85l-6.27-16.74c-.43-1.35,.15-3.62,.15-5.02h-1.79c.05,1.45,.63,3.71,.24,5.07l-6.18,16.69Z"/>
      <path class="cls-1" d="M50.27,36.19h-7.14l-.1-33.77h9.31l10.71,16.4c1.98,4.34,3.23,10.57,4.25,15.25l1.59-.34c-1.01-4.68-2.51-10.86-2.51-15.63V2.41h7.19V36.19h-8.88l-9.94-14.43c-2.7-4.97-4.63-12.11-6.03-17.56l-1.59,.39c1.4,5.45,3.14,12.69,3.14,18.33v13.27Z"/>
      <path class="cls-1" d="M115.07,18.91c0,9.79-6.61,17.32-17.18,17.32l-15.73-.05V2.41h17.85c9.84,0,15.05,7.29,15.05,16.5Zm-7.19,.19c0-6.95-3.04-11.97-10.52-11.97h-7.86V31.46h6.08c8.01,0,12.3-4.54,12.3-12.35Z"/>
      <path class="cls-1" d="M150.72,7.86c-8.25,16.07-11.43,30.3-20.5,30.3l1.79-12.45c7.67,.43,9.99-9.12,13.99-17.42l4.73-.43Zm-14.52-7.33c-.72,2.46,.72,5.89,3.14,5.89C144.31,6.42,148.31-.05,155.4,0c5.64,0,6.85,5.02,6.85,8.06,0,8.83-10.33,10.57-12.93,10.66l.05,.24c2.85,0,13.41-2.07,13.41,8.68,0,13.51-18.82,12.98-21.66,6.08-2.7-6.51,9.99-15.83,13.41-11.44,1.45,1.79-1.3,6.75-4,9.46l-.19-.14c.96-1.16,1.01-1.54,.82-2.36-.72-2.75-11.82,.92-9.5,4.25,2.17,3.09,9.7,.58,12.88-4.15,2.36-3.47,2.94-10.04-2.32-9.89-2.61,.05-4.92,1.54-4.78-.48,.19-2.94,5.84,2.41,7.48-6.61,1.4-7.91-3.38-9.41-5.07-9.41-7.14,0-9.22,10.66-13.03,10.66-2.17,0-2.65-2.94-2.65-5.21,0-3.43,.82-6.56,1.69-7.96l.34,.1Z"/>
      <path class="cls-1" d="M197.28,2.41V24.03c0,6.27-3.86,12.88-15.05,12.88s-15.1-6.27-15.1-12.88V2.41h7.19V24.99c0,5.4,3.47,7.67,8.15,7.67s7.62-2.99,7.62-7.67V2.41h7.19Z"/>
      <path class="cls-1" d="M204.76,30.69h9.36V7.91h-9.36V2.41h25.67V7.91h-9.07V30.69h9.07v5.5h-25.67v-5.5Z"/>
      <path class="cls-1" d="M238.2,2.41h6.71V30.69h17.51v5.5h-19.06c-3.09,0-5.16-2.07-5.16-5.16V2.41Z"/>
      <path class="cls-1" d="M300.92,18.91c0,9.79-6.61,17.32-17.18,17.32l-15.73-.05V2.41h17.85c9.84,0,15.05,7.29,15.05,16.5Zm-7.19,.19c0-6.95-3.04-11.97-10.52-11.97h-7.86V31.46h6.08c8.01,0,12.3-4.54,12.3-12.35Z"/>
    </g>
  </g>
</svg>