<?xml version="1.0" encoding="UTF-8"?>
<svg id="Layer_2" data-name="Layer 2" xmlns="http://www.w3.org/2000/svg" viewBox="0 0 249 48.22">
  <defs>
    <style>
      .cls-1 {
        fill: #231f20;
      }
    </style>
  </defs>
  <g id="Layer_1-2" data-name="Layer 1">
    <g>
      <path class="cls-1" d="M37.93,22.69c0,11.29-7.62,19.97-19.8,19.97l-18.13-.06V3.67H20.58c11.35,0,17.35,8.4,17.35,19.02Zm-8.29,.22c0-8.01-3.5-13.79-12.12-13.79H8.45v28.03h7.01c9.23,0,14.18-5.23,14.18-14.24Z"/>
      <path class="cls-1" d="M53.78,9.96v11.07h23.19v5.06h-23.19v10.23h24.97v6.28H46.16V3.67h32.59v6.28h-24.97Z"/>
      <path class="cls-1" d="M95.72,.5l-4.56,3.06c-1.89,1.56-1.95,3.34-1.95,4.62,0,11.4,27.25,15.02,27.25,26.53,0,8.57-15.35,13.52-22.25,13.52-8.45,0-16.8-8.34-10.46-16.07l11.79-6.23,.39,.44c-4.45,2.11-6.4,4.95-6.4,8.79,0,10.57,21.02,14.35,21.02,3.95,0-14.29-26.81-11.85-26.81-27.2,0-5.01,8.56-9.51,12.18-11.9,5.17,11.46,13.29,12.18,14.85,2.11h.39l-2.17,14.46c-4.56,0-9.68-.72-12.35-4.62-1.84-2.73-2.78-7.4-.95-11.46Z"/>
      <path class="cls-1" d="M120.85,36.26h10.79V10.01h-10.79V3.67h29.59v6.34h-10.46v26.25h10.46v6.34h-29.59v-6.34Z"/>
      <path class="cls-1" d="M195.21,20.91c4,0,4.73,3.39,4.73,5.95v8.95l6.06,.45v6.34h-13.85l4.39-15.68h-1.89c-1.39,9.96-8.29,16.41-18.19,16.41-11.07,0-19.75-8.12-19.75-19.86s9.07-20.75,22.25-20.75c8.45,0,18.35,4.62,18.91,14.63l-7.29-.17c-.56-4.73-5.45-7.68-11.85-7.68-9.4,0-13.74,5.95-13.74,13.9,0,8.34,6.45,12.9,13.46,12.9,5.67,0,12.46-2.95,13.4-9.4h-13.63v-6.01h16.96Z"/>
      <path class="cls-1" d="M222.13,42.6h-8.23l-.11-38.93h10.73l12.35,18.91c2.28,5.01,3.73,12.18,4.89,17.58l1.84-.39c-1.17-5.4-2.89-12.51-2.89-18.02V3.67h8.29V42.6h-10.23l-11.46-16.63c-3.12-5.73-5.34-13.96-6.95-20.25l-1.84,.44c1.61,6.29,3.62,14.63,3.62,21.14v15.29Z"/>
    </g>
  </g>
</svg>