<?xml version="1.0" encoding="UTF-8"?>
<svg id="Layer_2" data-name="Layer 2" xmlns="http://www.w3.org/2000/svg" viewBox="0 0 247.16 38.58">
  <defs>
    <style>
      .cls-1 {
        fill: #f1f2f2;
      }
    </style>
  </defs>
  <g id="Layer_1-2" data-name="Layer 1">
    <g>
      <path class="cls-1" d="M36.47,17.23c3.79,0,4.48,3.21,4.48,5.64v8.49l5.74,.42v6.01h-13.12l4.16-14.86h-1.79c-1.32,9.43-7.85,15.55-17.23,15.55C8.22,38.47,0,30.78,0,19.66S8.59,0,21.08,0c8.01,0,17.39,4.38,17.92,13.86l-6.9-.16c-.53-4.48-5.17-7.27-11.23-7.27-8.91,0-13.02,5.64-13.02,13.18,0,7.91,6.11,12.23,12.75,12.23,5.38,0,11.81-2.79,12.7-8.91h-12.91v-5.69h16.07Z"/>
      <path class="cls-1" d="M53.38,31.78h10.22V6.9h-10.22V.9h28.04V6.9h-9.91V31.78h9.91v6.01h-28.04v-6.01Z"/>
      <path class="cls-1" d="M117.63,6.9h-12.23v30.88h-7.22V6.9h-12.54V.95h31.99V6.9Z"/>
      <path class="cls-1" d="M160.42,.9V37.79h-7.91v-15.71h-21.56v15.71h-7.91V.9h7.91v15.49h21.56V.9h7.91Z"/>
      <path class="cls-1" d="M202.58,.9V24.51c0,6.85-4.22,14.07-16.44,14.07s-16.5-6.85-16.5-14.07V.9h7.85V25.56c0,5.9,3.79,8.38,8.91,8.38s8.33-3.27,8.33-8.38V.9h7.85Z"/>
      <path class="cls-1" d="M247.16,28.35c0,7.48-6.27,9.43-12.96,9.43h-22.29V.9h19.92c7.06,0,14.6,1.26,14.6,9.06,0,6.27-4.8,8.22-10.49,8.64v1.79c6.01,.47,11.23,1.26,11.23,7.96Zm-27.35-21.61v10.59h12.28c3.9,0,6.8-1.95,6.8-5.53,0-3.79-3.21-5.06-7.48-5.06h-11.6Zm19.55,20.4c0-3.85-2.95-5.59-7.33-5.59h-12.23v11.02h13.28c3.53,0,6.27-1.74,6.27-5.43Z"/>
    </g>
  </g>
</svg>