<?xml version="1.0" encoding="UTF-8"?>
<svg id="Layer_2" data-name="Layer 2" xmlns="http://www.w3.org/2000/svg" viewBox="0 0 379.7 38.53">
  <defs>
    <style>
      .cls-1 {
        fill: #f1f2f2;
      }
    </style>
  </defs>
  <g id="Layer_1-2" data-name="Layer 1">
    <g>
      <path class="cls-1" d="M0,31.78H10.22V6.9H0V.9H28.04V6.9h-9.91V31.78h9.91v6.01H0v-6.01Z"/>
      <path class="cls-1" d="M44.64,37.79h-7.8l-.11-36.89h10.17l11.7,17.92c2.16,4.74,3.53,11.54,4.64,16.65l1.74-.37c-1.11-5.11-2.74-11.86-2.74-17.08V.9h7.85V37.79h-9.7l-10.86-15.76c-2.95-5.43-5.06-13.23-6.59-19.18l-1.74,.42c1.53,5.96,3.43,13.86,3.43,20.03v14.49Z"/>
      <path class="cls-1" d="M117.94,27.04c0,7.8-9.12,11.49-20.45,11.49-17.44,0-20.19-7.69-20.19-12.75h8.59c-.05,5.01,4.48,7.06,11.54,7.06,8.22,0,12.17-1.95,12.17-5.69,0-10.17-31.78,.95-31.78-15.55,0-7.06,7.17-11.23,20.34-11.23,11.23,0,19.39,3.64,19.24,13.18h-8.06c0-5.48-4.43-7.64-11.17-7.64-7.17,0-11.75,1.79-11.75,6.11,0,9.28,31.52-.32,31.52,15.02Z"/>
      <path class="cls-1" d="M151.88,6.9h-12.23v30.88h-7.22V6.9h-12.54V.95h31.99V6.9Z"/>
      <path class="cls-1" d="M157.94,37.79h-9.01L164.05,.9h11.49l15.13,36.89h-8.96l-2.9-7.22-17.97,.05-2.9,7.17Zm4.38-11.81h15.13l-6.85-18.29c-.47-1.48,.16-3.95,.16-5.48h-1.95c.05,1.58,.68,4.06,.26,5.53l-6.75,18.24Z"/>
      <path class="cls-1" d="M229.45,17.23c3.79,0,4.48,3.22,4.48,5.64v8.49l5.75,.42v6.01h-13.12l4.16-14.86h-1.79c-1.32,9.43-7.85,15.55-17.23,15.55-10.49,0-18.71-7.69-18.71-18.81S201.57,0,214.06,0c8.01,0,17.39,4.37,17.92,13.86l-6.9-.16c-.53-4.48-5.17-7.27-11.23-7.27-8.91,0-13.02,5.64-13.02,13.18,0,7.91,6.11,12.23,12.75,12.23,5.38,0,11.81-2.79,12.7-8.91h-12.91v-5.69h16.08Z"/>
      <path class="cls-1" d="M247.52,.95h22.03c7.27,0,13.65,2,13.65,8.96,0,5.16-3.53,7.91-8.33,8.64v1.74c4.9,.32,3.85,4.85,2.74,11.59h5.96v6.01h-15.34l5.22-14.7h-18.71v14.6h-7.22V.95Zm7.22,16.6l14.65,.11c3.58,.05,6.64-1.84,6.64-5.43s-3.06-5.43-6.54-5.43h-14.76v10.75Z"/>
      <path class="cls-1" d="M294.32,37.79h-9.01L300.44,.9h11.49l15.13,36.89h-8.96l-2.9-7.22-17.97,.05-2.9,7.17Zm4.38-11.81h15.13l-6.85-18.29c-.47-1.48,.16-3.95,.16-5.48h-1.95c.05,1.58,.68,4.06,.26,5.53l-6.75,18.24Z"/>
      <path class="cls-1" d="M362.1,37.79h-12.39l-7.85-17.97c-1.21-5.06-1.58-12.07-2.21-17.23l-1.79,.21c.69,5.22,2.06,12.07,2.11,17.29l.11,17.71h-7.96V.9h12.44l10.86,34.36h1L367.31,.9h12.38V37.79h-7.91l.05-17.6c.05-5.27,1.42-12.12,2.06-17.34l-1.74-.21c-.63,5.22-1,12.17-2.21,17.29l-7.85,17.87Z"/>
    </g>
  </g>
</svg>