<?xml version="1.0" encoding="UTF-8"?>
<svg id="Layer_2" data-name="Layer 2" xmlns="http://www.w3.org/2000/svg" viewBox="0 0 297.89 101.67">
  <defs>
    <style>
      .cls-1 {
        fill: #fff;
      }
    </style>
  </defs>
  <g id="Layer_2-2" data-name="Layer 2">
    <g>
      <path class="cls-1" d="M4.19,85.79l14.11-17.28V19.32c-1.78-.38-3.56-.76-5.34-.76-4.58,0-8.26,4.07-11.69,8.77l-1.27-1.14L25.29,.13l22.24,13.6-9.28,11.44v22.75h16.9c11.44-14.23-4.58-43.59,15.89-45.24l24.53-.13v1.02c-20.97,0-15.63,19.32-16.39,34.31l-24.4,11.69h-3.81c16.39,3.69,36.47,16.27,36.47,31.52s-12.96,18.81-27.32,18.3h-18.56v-24.4c1.14,0-.13,0,.51,0,8.39,0,9.4,23.13,18.17,23.13,6.48,0,8.13-3.18,8.13-16.78s-4.07-29.23-22.88-31.77h-7.24v4.7l-15.63,17.41,16.14,10.55-12.33,17.28-22.24-13.73Z"/>
      <path class="cls-1" d="M169.54,95.45h-29.87l-18.94-43.34c-2.92-12.2-3.81-29.1-5.34-41.56l-4.32,.51c1.65,12.58,4.96,29.1,5.08,41.69l.25,42.7h-19.19V6.48h29.99l26.18,82.86h2.41L182.12,6.48h29.87V95.45h-19.06l.13-42.45c.13-12.71,3.43-29.23,4.96-41.81l-4.19-.51c-1.52,12.58-2.41,29.36-5.34,41.69l-18.94,43.08Z"/>
      <path class="cls-1" d="M225.07,82.23l13.47-16.65V18.43c-1.52-.38-3.3-.64-4.96-.64-4.45,0-8.01,3.81-11.31,8.26l-1.14-1.02L245.27,0l21.35,13.09-8.9,11.06v27.71l-14.87,16.78,11.44,7.5c15.25,8.26,30.76-13.22,36.35,2.8l7.24,22.5-.89,.25c-6.1-19.19-16.52-9.41-21.73-6.48l-18.17-14.62-10.68,14.74-21.35-13.09Z"/>
    </g>
  </g>
</svg>