<?xml version="1.0" encoding="UTF-8"?>
<svg id="Layer_2" data-name="Layer 2" xmlns="http://www.w3.org/2000/svg" viewBox="0 0 212.64 68.95">
  <defs>
    <style>
      .cls-1 {
        fill: #231f20;
      }
    </style>
  </defs>
  <g id="Layer_1-2" data-name="Layer 1">
    <g>
      <path class="cls-1" d="M56.08,57.75h11.1v11.2h-28.58l9.72-27.4H13.46v27.21H0V0H13.46V30.06h4.81L51.17,0h16.5l-24.85,23.47c-5.01,5.89-14.34,8.55-22.1,10.12l-.1,3.14c2.36-.69,6.38-2.26,9.23-3.04,3.44-.88,7.07-1.28,10.51-1.28,7.17,0,13.55,1.67,15.42,4.52,4.52,2.26,2.06,9.23,.29,20.82Z"/>
      <path class="cls-1" d="M94.58,0h57.26l.2,55.79c0,10.8-13.26,12.96-23.47,12.96h-55.69v-22c5.11,.29,11-3.63,12.67-10.31L94.58,0Zm5.7,46.75c5.11,.29,10.02-5.21,11.39-11.79L118.75,.98h-11.39l-10.31,39.98c-3.63,14.24-13.55,18.96-22.59,19.45,.98,7.37,4.71,7.46,25.83,7.37v-21.02ZM131.51,.98l-8.94,41.74c-2.26,12.96-10.61,17.48-21.31,17.68,.29,7.86-.29,7.37,27.4,7.37,4.71,0,9.43-2.26,9.43-12.38l-.2-54.41h-6.38Z"/>
      <path class="cls-1" d="M163.33,0h13.65V57.56h35.65v11.2h-38.8c-6.29,0-10.51-4.22-10.51-10.51V0Z"/>
    </g>
  </g>
</svg>