<?xml version="1.0" encoding="UTF-8"?>
<svg id="Layer_2" data-name="Layer 2" xmlns="http://www.w3.org/2000/svg" viewBox="0 0 302.7 37">
  <defs>
    <style>
      .cls-1 {
        fill: #f1f2f2;
      }
    </style>
  </defs>
  <g id="Layer_1-2" data-name="Layer 1">
    <g>
      <path class="cls-1" d="M0,0H7.33V30.88H26.46v6.01H5.64c-3.37,0-5.64-2.27-5.64-5.64V0Z"/>
      <path class="cls-1" d="M30.78,30.88h10.22V6.01h-10.22V0h28.04V6.01h-9.91V30.88h9.91v6.01H30.78v-6.01Z"/>
      <path class="cls-1" d="M75.41,36.89h-7.8l-.11-36.89h10.17l11.7,17.92c2.16,4.74,3.53,11.54,4.64,16.65l1.74-.37c-1.11-5.11-2.74-11.86-2.74-17.08V0h7.85V36.89h-9.7l-10.86-15.76c-2.95-5.43-5.06-13.23-6.59-19.18l-1.74,.42c1.53,5.96,3.43,13.86,3.43,20.03v14.49Z"/>
      <path class="cls-1" d="M140.34,30.99h5.96v6.01h-15.34l5.22-14.7h-18.71v14.6h-7.22V0h7.22V16.13h2.58L137.7,0h8.85l-13.33,12.6c-2.69,3.16-7.69,4.58-11.86,5.43l-.05,1.69c1.26-.37,3.43-1.21,4.95-1.63,1.84-.47,3.79-.69,5.64-.69,3.85,0,7.27,.9,8.27,2.42,2.42,1.21,1.11,4.95,.16,11.17Z"/>
      <path class="cls-1" d="M160.1,5.96v10.49h21.98v4.8h-21.98v9.7h23.66v5.96h-30.88V0h30.88V5.96h-23.66Z"/>
      <path class="cls-1" d="M226.61,18.02c0,10.7-7.22,18.92-18.76,18.92l-17.18-.05V0h19.5c10.75,0,16.44,7.96,16.44,18.02Zm-7.85,.21c0-7.59-3.32-13.07-11.49-13.07h-8.59V31.73h6.64c8.75,0,13.44-4.95,13.44-13.49Z"/>
      <path class="cls-1" d="M232.61,30.88h10.22V6.01h-10.22V0h28.04V6.01h-9.91V30.88h9.91v6.01h-28.04v-6.01Z"/>
      <path class="cls-1" d="M277.25,36.89h-7.8l-.11-36.89h10.17l11.7,17.92c2.16,4.74,3.53,11.54,4.64,16.65l1.74-.37c-1.11-5.11-2.74-11.86-2.74-17.08V0h7.85V36.89h-9.7l-10.86-15.76c-2.95-5.43-5.06-13.23-6.59-19.18l-1.74,.42c1.53,5.96,3.43,13.86,3.43,20.03v14.49Z"/>
    </g>
  </g>
</svg>