<svg width="1176" height="91" viewBox="0 0 1176 91" fill="none" xmlns="http://www.w3.org/2000/svg">
<path d="M64.056 26.768C64.056 38.384 56.856 47.504 42.456 47.6L13.176 47.888V74H0.0240004V6.8H39.576C52.248 6.8 64.056 11.888 64.056 26.768ZM13.176 17.552V37.616H38.52C45.048 37.616 51 34.064 51 27.344C51 20.528 45.048 17.552 38.712 17.552H13.176ZM132.965 17.648H89.8613V36.752H129.893V45.488H89.8613V63.152H132.965V74H76.7093V6.8H132.965V17.648ZM145.522 74V6.89599H185.65C198.898 6.89599 210.514 10.544 210.514 23.216C210.514 32.624 204.082 37.616 195.346 38.96V42.128C204.274 42.704 202.354 50.96 200.338 63.248H211.186V74.192H183.25L192.754 47.408H158.674V74H145.522ZM158.674 17.552V37.136L185.362 37.328C191.89 37.424 197.458 33.968 197.458 27.44C197.458 20.72 191.89 17.552 185.554 17.552H158.674ZM241.108 21.104C237.94 16.4 236.308 8.336 239.476 1.328L231.604 6.608C228.34 9.296 228.244 12.368 228.244 14.576C228.244 34.256 275.284 40.496 275.284 60.368C275.284 75.152 248.788 83.696 236.884 83.696C222.292 83.696 207.892 69.296 218.836 55.952L239.188 45.2L239.86 45.968C232.18 49.616 228.82 54.512 228.82 61.136C228.82 79.376 265.108 85.904 265.108 67.952C265.108 43.28 218.836 47.504 218.836 21.008C218.836 12.368 233.62 4.592 239.86 0.463997C248.788 20.24 262.804 21.488 265.492 4.112H266.164L262.42 29.072C254.548 29.072 245.716 27.824 241.108 21.104ZM320.665 5.36C343.897 5.36 361.177 20.336 361.273 40.496C361.273 60.56 343.897 75.536 320.665 75.536C297.529 75.536 280.153 60.56 280.153 40.496C280.153 20.816 298.009 5.36 320.665 5.36ZM320.665 65.36C335.065 65.36 346.681 56.336 346.681 40.88C346.681 25.232 336.505 16.208 321.241 16.016C306.457 15.824 295.033 25.424 295.033 40.88C295.033 56.528 306.457 65.36 320.665 65.36ZM388.933 47.6V74H374.725L374.533 6.8H393.061L414.373 39.44C418.309 48.08 420.805 60.464 422.821 69.776L425.989 69.104C423.973 59.792 420.997 47.504 420.997 38V6.8H435.301V74H417.637L397.861 45.296C392.485 35.408 388.645 21.2 385.861 10.352L382.693 11.12C385.477 21.968 388.933 36.368 388.933 47.6ZM466.67 60.944L461.39 74H444.974L472.526 6.8H493.454L521.006 74H504.686L499.406 60.848L466.67 60.944ZM481.646 19.28L469.358 52.496H496.91L484.43 19.184C483.566 16.496 484.718 11.984 484.718 9.2H481.166C481.262 12.08 482.414 16.592 481.646 19.28ZM530.243 63.728V6.8H543.587V63.056H578.435V74H540.515C534.371 74 530.243 69.872 530.243 63.728ZM675.494 26.768C675.494 38.384 668.294 47.504 653.894 47.6L624.614 47.888V74H611.462V6.8H651.014C663.686 6.8 675.494 11.888 675.494 26.768ZM624.614 17.552V37.616H649.958C656.486 37.616 662.438 34.064 662.438 27.344C662.438 20.528 656.486 17.552 650.15 17.552H624.614ZM688.147 74V6.89599H728.275C741.523 6.89599 753.139 10.544 753.139 23.216C753.139 32.624 746.707 37.616 737.971 38.96V42.128C746.899 42.704 744.979 50.96 742.963 63.248H753.811V74.192H725.875L735.379 47.408H701.299V74H688.147ZM701.299 17.552V37.136L727.987 37.328C734.515 37.424 740.083 33.968 740.083 27.44C740.083 20.72 734.515 17.552 728.179 17.552H701.299ZM802.165 5.36C825.397 5.36 842.677 20.336 842.773 40.496C842.773 60.56 825.397 75.536 802.165 75.536C779.029 75.536 761.653 60.56 761.653 40.496C761.653 20.816 779.509 5.36 802.165 5.36ZM802.165 65.36C816.565 65.36 828.181 56.336 828.181 40.88C828.181 25.232 818.005 16.208 802.741 16.016C787.957 15.824 776.533 25.424 776.533 40.88C776.533 56.528 787.957 65.36 802.165 65.36ZM866.113 90.224L848.353 79.568V59.6H868.513V20.624C882.913 15.92 884.353 2.96 875.617 2.86399C868.129 2.768 863.617 27.536 853.921 27.536C849.025 27.536 846.817 21.872 846.817 17.648C846.817 11.216 848.449 5.36 850.081 2.672L850.657 2.86399C849.313 7.568 852.001 12.656 856.417 12.656C870.049 12.656 867.457 1.808 877.057 1.808C881.857 1.808 884.929 5.744 883.297 16.208V67.472C883.105 78.896 874.657 86.864 866.113 90.224ZM868.513 66.704V60.752C856.321 61.136 849.313 63.248 849.313 68.912V79.088C856.897 78.896 868.513 73.424 868.513 66.704ZM951.403 17.648H908.299V36.752H948.331V45.488H908.299V63.152H951.403V74H895.147V6.8H951.403V17.648ZM1024.1 47.6H1037.54C1036.68 64.688 1018.15 75.536 996.356 75.536C972.164 75.536 957.284 62.096 957.284 41.552C957.284 19.472 974.468 5.36 999.236 5.36C1021.22 5.36 1038.31 16.496 1038.31 35.984L1024.58 35.792C1024.48 21.68 1012.1 15.248 998.66 15.152C981.476 15.056 971.204 25.424 971.204 41.072C971.204 56.24 980.996 66.032 997.892 66.032C1012.2 66.032 1022.76 59.024 1024.1 47.6ZM1098.17 6.89599V17.744H1075.9V74H1062.75V17.744H1039.9V6.89599H1098.17ZM1118.29 27.056C1118.29 43.952 1175.7 26.48 1175.7 54.416C1175.7 68.624 1159.09 75.344 1138.45 75.344C1106.67 75.344 1101.68 61.328 1101.68 52.112H1117.33C1117.23 61.232 1125.49 64.976 1138.35 64.976C1153.33 64.976 1160.53 61.424 1160.53 54.608C1160.53 36.08 1102.64 56.336 1102.64 26.288C1102.64 13.424 1115.7 5.84 1139.7 5.84C1160.14 5.84 1175.02 12.464 1174.74 29.84H1160.05C1160.05 19.856 1151.98 15.92 1139.7 15.92C1126.64 15.92 1118.29 19.184 1118.29 27.056Z" fill="black"/>
</svg>
