<?xml version="1.0" encoding="UTF-8"?>
<svg id="Layer_2" data-name="Layer 2" xmlns="http://www.w3.org/2000/svg" viewBox="0 0 204.88 208.8">
  <defs>
    <style>
      .cls-1 {
        fill: #231f20;
      }
    </style>
  </defs>
  <g id="Layer_1-2" data-name="Layer 1">
    <path class="cls-1" d="M3.32,131.31h0c-.23-2.53-.48-5.12-.74-7.81-.53-5.45-1.12-11.26-1.76-17.47-.26-2.56-.54-5.18-.82-7.88,.09-1.8,.24-3.58,.45-5.35,.18,1.79,.37,3.54,.55,5.27,1.3,12.41,2.41,23.37,3.31,33.06,.16,1.75,.32,3.46,.47,5.13-.53-1.63-1.02-3.28-1.46-4.95Z"/>
    <path class="cls-1" d="M9,147.24c-.42-.93-.83-1.87-1.22-2.82-.08-1.11-.17-2.23-.26-3.38-1.19-15-2.89-33.23-5.01-55.39-.11-1.13-.22-2.28-.33-3.43,.21-1.02,.45-2.04,.71-3.05,.1,1.04,.2,2.08,.3,3.1,2.42,25.3,4.33,45.61,5.58,61.92,.08,1.04,.15,2.05,.23,3.05Z"/>
    <path class="cls-1" d="M12.9,154.98c-.39-.69-.77-1.38-1.14-2.09-.05-.82-.1-1.66-.16-2.51-1.14-17.27-2.98-39.13-5.33-66.64-.3-3.58-.59-6.82-.88-9.83-.07-.76-.14-1.51-.21-2.25-.01-.09-.02-.18-.03-.27,.25-.76,.51-1.51,.79-2.25,.07,.77,.15,1.56,.22,2.36,0,.02,0,.04,0,.06,.35,3.64,.71,7.6,1.1,12.1,2.45,28.74,4.35,51.31,5.48,68.95,.05,.8,.1,1.59,.15,2.37Z"/>
    <path class="cls-1" d="M16.7,161.28c-.38-.57-.75-1.15-1.11-1.73-.03-.69-.07-1.38-.11-2.09-.98-17.71-2.66-40.41-4.83-69.16-.35-4.62-.67-8.63-.98-12.25-.35-4.01-.69-7.74-1-11.21-.03-.39-.07-.77-.1-1.15-.03-.32-.06-.64-.08-.96,.26-.63,.54-1.25,.84-1.87,.05,.66,.11,1.34,.18,2.03,.02,.23,.04,.47,.06,.71,.34,3.81,.7,7.91,1.09,12.37,.32,3.62,.64,7.63,.99,12.26,2.28,30.29,3.99,53.35,4.94,71.03,.04,.68,.07,1.36,.11,2.02Z"/>
    <path class="cls-1" d="M20.44,166.65c-.36-.48-.72-.97-1.07-1.46-.02-.61-.05-1.23-.08-1.85-.81-17.67-2.29-40.63-4.25-70.47-.32-4.87-.6-8.81-.88-12.42-.31-3.96-.6-7.65-.88-11.1-.36-4.47-.68-8.55-.96-12.35-.05-.63-.1-1.25-.15-1.86,.29-.54,.58-1.08,.89-1.61,.04,.6,.09,1.2,.14,1.81,.31,4.21,.67,8.81,1.08,13.93,.27,3.45,.57,7.14,.87,11.11,.28,3.6,.56,7.55,.88,12.42,2.02,30.72,3.53,54.15,4.33,72.04h0c.03,.61,.05,1.21,.08,1.81Z"/>
    <path class="cls-1" d="M24.15,171.33c-.36-.42-.71-.84-1.04-1.26-.02-.54-.04-1.09-.06-1.65-.67-17.82-1.94-40.99-3.63-70.99-.29-5.12-.53-9-.77-12.58-.24-3.52-.47-6.83-.69-9.96-.68-9.81-1.24-17.84-1.6-24.99-.03-.59-.06-1.18-.08-1.75,.31-.48,.62-.95,.93-1.42,.03,.56,.05,1.13,.08,1.7,.34,7.49,.93,15.93,1.66,26.39,.22,3.13,.45,6.44,.7,9.96,.24,3.59,.48,7.47,.77,12.59,1.73,30.76,3.03,54.35,3.68,72.35,.02,.54,.04,1.08,.05,1.61Z"/>
    <path class="cls-1" d="M27.88,175.55c-.35-.37-.7-.74-1.04-1.12-.01-.51-.02-1.02-.04-1.54-.53-17.88-1.59-41.08-3-70.9-.18-3.78-.39-8.26-.66-12.74l-.54-8.91c-.94-15.64-1.62-26.91-1.68-37.16,0-.56,0-1.11,0-1.66,.33-.44,.67-.88,1.01-1.31,0,.55,0,1.09,0,1.64,0,10.59,.71,22.13,1.69,38.43l.54,8.91c.26,4.49,.48,8.97,.66,12.75,1.44,30.48,2.52,54.05,3.03,72.11,.02,.51,.04,1.01,.05,1.5Z"/>
    <path class="cls-1" d="M31.62,179.36c-.34-.32-.68-.66-1.02-.99-.01-.48-.02-.96-.03-1.45-.39-17.89-1.25-40.98-2.38-70.37-.15-3.89-.34-8.47-.56-12.9l-.41-7.97c-1.11-21.71-1.8-35.26-1.09-49.02,.02-.53,.05-1.06,.08-1.59,.35-.41,.72-.81,1.08-1.2-.04,.53-.07,1.05-.1,1.58-.81,14.16-.11,27.84,1.03,50.18l.41,7.97c.22,4.44,.41,9.02,.55,12.92,1.15,29.96,2.03,53.38,2.41,71.43,.01,.47,.02,.94,.03,1.41Z"/>
    <path class="cls-1" d="M35.38,182.83c-.34-.28-.67-.58-1-.89-.01-.44-.01-.89-.02-1.35-.27-17.85-.93-40.69-1.79-69.47-.15-4.88-.28-8.97-.45-13.07l-.3-7.16c-1.12-26.76-1.77-42.11,.22-60.48,.05-.51,.11-1.03,.17-1.56,.38-.36,.75-.71,1.13-1.05l-.18,1.53c-2.13,18.84-1.49,34.23-.34,61.52l.3,7.16c.17,4.1,.3,8.19,.45,13.08,.87,29.27,1.54,52.4,1.79,70.4,.01,.45,.02,.9,.02,1.34Z"/>
    <path class="cls-1" d="M39.9,22.2c-.08,.48-.16,.96-.24,1.46-.04,.26-.09,.54-.13,.81-3.72,23.52-3.19,39.55-2.13,71.49l.21,6.45c.15,4.58,.25,9.24,.34,13.25,.62,28.43,1.08,51.18,1.22,69.07,0,.43,.01,.86,.01,1.28-.34-.25-.67-.52-1-.8,0-.43,0-.86-.01-1.29-.14-17.75-.61-40.23-1.22-68.24-.08-4.01-.19-8.66-.34-13.23l-.21-6.46c-1.06-31.87-1.6-47.93,2.11-71.4,.01-.09,.03-.19,.04-.28,.06-.4,.13-.8,.19-1.18,.38-.32,.77-.63,1.16-.93Z"/>
    <path class="cls-1" d="M46.85,17.19c-.1,.46-.2,.93-.29,1.39-.06,.26-.11,.52-.16,.78-.54,2.63-1.05,5.44-1.58,8.58-4.06,24-3.66,40.38-2.86,73l.14,5.88c.11,4.45,.17,8.88,.24,13.41,.38,27.49,.66,49.76,.68,67.48v1.23c-.34-.23-.67-.48-1-.73,0-.41,0-.83-.01-1.25-.02-17.58-.3-39.61-.67-66.72-.07-4.52-.13-8.95-.24-13.39l-.14-5.89c-.8-32.68-1.2-49.09,2.87-73.18,.51-3.07,1.02-5.81,1.54-8.38,.02-.08,.03-.16,.05-.24,.08-.39,.16-.79,.25-1.18,.39-.27,.78-.53,1.18-.79Z"/>
    <path class="cls-1" d="M54.08,12.82c-.12,.44-.23,.89-.33,1.34-.7,2.85-1.35,5.71-1.96,8.58-.58,2.69-1.13,5.53-1.69,8.68-4.38,24.45-4.1,42.18-3.59,74.37l.08,5.44c.07,4.53,.1,9.05,.13,13.57,.16,26.46,.27,48.16,.17,65.64,.01,.4,0,.79,0,1.18-.34-.21-.67-.43-1-.66,.01-.4,.01-.8,.01-1.2,.08-17.36-.02-38.84-.18-64.96-.03-4.51-.06-9.03-.13-13.56l-.08-5.43c-.51-32.25-.79-50.02,3.6-74.57,.57-3.16,1.12-6.01,1.7-8.7,.55-2.58,1.13-5.15,1.75-7.71,.1-.45,.21-.89,.32-1.34,.4-.22,.8-.45,1.2-.67Z"/>
    <path class="cls-1" d="M61.51,9.12c-.12,.42-.24,.84-.35,1.26-1.49,5.22-2.81,10.47-3.98,15.75-.62,2.75-1.21,5.62-1.8,8.77-4.7,24.87-4.57,42.89-4.33,75.62l.03,5.12c.04,4.6,.03,9.17,.02,13.73-.04,25.33-.09,46.37-.28,63.56-.01,.38-.01,.77-.02,1.15-.33-.19-.66-.39-.99-.6,0-.38,.01-.77,.01-1.16,.19-17.07,.24-37.91,.28-62.95,0-4.55,.02-9.13-.02-13.73l-.03-5.12c-.24-32.78-.37-50.84,4.34-75.81,.6-3.16,1.19-6.03,1.81-8.8,1.12-5.02,2.37-10.01,3.77-14.98,.11-.42,.22-.84,.35-1.26,.39-.19,.79-.38,1.19-.55Z"/>
    <path class="cls-1" d="M69.08,6.07c-.14,.4-.27,.8-.39,1.2-2.35,7.35-4.39,14.77-6.13,22.25-.65,2.81-1.28,5.7-1.9,8.85-5.01,25.26-5.04,44.64-5.08,76.75v4.92c-.01,4.68-.05,9.31-.09,13.9-.22,24.14-.41,44.45-.7,61.27-.01,.38-.02,.76-.02,1.13-.34-.18-.67-.36-1-.54,.01-.37,.01-.75,.02-1.14,.29-16.7,.49-36.84,.7-60.73,.04-4.59,.08-9.21,.09-13.89v-4.92c.04-32.17,.07-51.59,5.1-76.94,.62-3.16,1.25-6.07,1.91-8.89,1.69-7.25,3.66-14.44,5.91-21.57,.13-.41,.26-.81,.39-1.22,.4-.15,.79-.3,1.19-.43Z"/>
    <path class="cls-1" d="M76.71,3.66c-.14,.38-.28,.77-.41,1.15-3.27,9.24-6.05,18.62-8.35,28.09-.73,3-1.41,6.01-2.01,8.95-5.33,25.41-5.51,44.83-5.82,77l-.05,5.6c-.05,4.6-.12,9.13-.19,13.61v.45c-.38,22.9-.71,42.41-1.09,58.78-.01,.37-.02,.74-.03,1.1-.33-.16-.66-.32-.99-.49,.01-.37,.02-.74,.03-1.11,.38-16.26,.7-35.62,1.07-58.3v-.45c.08-4.47,.15-9,.2-13.6l.05-5.6c.31-32.23,.49-51.69,5.84-77.2,.61-2.94,1.29-5.96,2.02-8.97,2.25-9.27,4.97-18.46,8.14-27.52,.14-.39,.27-.78,.42-1.16,.39-.12,.78-.23,1.17-.33Z"/>
    <path class="cls-1" d="M84.35,1.88c-.15,.37-.29,.74-.43,1.11-4.2,10.92-7.73,22.04-10.58,33.3-.76,3.01-1.48,6.05-2.12,9.03-5.64,25.79-5.99,45.46-6.56,78.06l-.1,5.48c-.08,4.31-.18,8.55-.27,12.73l-.04,1.49c-.5,21.6-.94,40.23-1.4,56.09-.01,.36-.02,.72-.04,1.07-.33-.13-.66-.28-.99-.43,.02-.36,.03-.72,.04-1.08,.46-15.76,.9-34.26,1.39-55.67l.04-1.49c.09-4.18,.19-8.42,.27-12.73l.1-5.48c.58-32.66,.93-52.37,6.58-78.25,.65-2.99,1.36-6.04,2.13-9.06,2.8-11.09,6.27-22.05,10.39-32.82,.13-.37,.28-.75,.43-1.12,.39-.08,.77-.16,1.16-.23Z"/>
    <path class="cls-1" d="M91.96,.7c-.15,.35-.3,.7-.44,1.06-5.15,12.38-9.42,25.05-12.79,37.92-.8,3.04-1.55,6.1-2.23,9.12-5.94,26.13-6.48,47.17-7.31,79.02l-.14,5.45c-.12,4.45-.25,8.83-.38,13.11l-.03,1.27c-.6,20.26-1.14,37.95-1.68,53.21-.02,.36-.03,.71-.04,1.06-.33-.12-.66-.25-.99-.37,.01-.36,.03-.72,.04-1.08,.53-15.17,1.07-32.75,1.67-52.85l.03-1.27c.13-4.28,.26-8.65,.38-13.11l.14-5.45c.83-31.91,1.38-52.99,7.34-79.22,.68-3.02,1.43-6.1,2.23-9.15,3.33-12.72,7.55-25.26,12.61-37.51,.14-.36,.29-.72,.45-1.07,.38-.05,.76-.1,1.14-.14Z"/>
    <path class="cls-1" d="M99.49,.09c-.17,.34-.32,.68-.46,1.02-6.05,13.65-11.04,27.68-14.92,41.95-.83,3.09-1.62,6.19-2.33,9.21-6.33,26.89-7.04,48.6-8.11,81.47l-.13,3.93c-.18,4.98-.35,9.82-.52,14.55-.71,18.81-1.34,35.5-1.94,50.15-.01,.34-.03,.69-.04,1.03-.33-.1-.66-.21-.98-.34,.01-.34,.03-.69,.04-1.04,.6-14.56,1.22-31.16,1.92-49.84,.17-4.72,.34-9.57,.52-14.54l.13-3.94c1.07-32.92,1.78-54.67,8.14-81.66,.71-3.03,1.5-6.14,2.34-9.24,3.84-14.16,8.77-28.07,14.74-41.62,.15-.34,.3-.69,.46-1.03,.38-.03,.76-.05,1.14-.06Z"/>
    <path class="cls-1" d="M106.87,.01c-.15,.33-.31,.66-.46,.99-6.9,14.74-12.56,29.94-16.91,45.45-8.75,31.16-9.74,54.56-11.23,89.97l-.24,5.66c-1.01,23.61-1.88,44.08-2.71,61.62-.01,.34-.03,.69-.04,1.03-.33-.09-.66-.19-.99-.29,.02-.34,.04-.69,.05-1.04,.82-17.48,1.69-37.86,2.69-61.36l.24-5.66c1.5-35.49,2.49-58.93,11.27-90.2,4.33-15.42,9.94-30.53,16.78-45.19,.15-.33,.31-.66,.46-.99,.37,0,.73,0,1.09,.01Z"/>
    <path class="cls-1" d="M112.38,.3c-.14,.32-.28,.64-.42,.97-5.64,13.02-11.47,29.01-16.4,47.8-8.2,31.28-9.42,55.09-11.26,91.12l-.88,17.09c-.92,17.98-1.74,33.9-2.51,47.89-.01,.34-.03,.67-.05,1-.33-.07-.66-.15-.99-.23,.02-.34,.04-.68,.06-1.02,.76-13.94,1.57-29.79,2.49-47.69l.88-17.09c1.85-36.1,3.07-59.95,11.29-91.33,4.9-18.69,10.7-34.61,16.31-47.61,.14-.33,.28-.65,.42-.97,.36,0,.71,.04,1.06,.07Z"/>
    <path class="cls-1" d="M117.66,.84c-.13,.32-.26,.64-.38,.96-5.04,12.69-10.65,29.31-15.66,49.88-7.63,31.34-9.09,55.51-11.29,92.08l-1.38,22.86c-.88,14.7-1.68,27.89-2.42,39.67-.02,.34-.04,.67-.06,1.01-.34-.06-.67-.11-1-.17,.03-.33,.05-.67,.07-1.01,.75-11.83,1.54-25.01,2.41-39.56l1.38-22.86c2.21-36.63,3.66-60.83,11.32-92.25,4.99-20.49,10.58-37.07,15.61-49.77,.13-.32,.25-.64,.38-.96,.34,.04,.68,.08,1.02,.12Z"/>
    <path class="cls-1" d="M122.75,1.63c-.12,.32-.24,.64-.34,.96-5.38,14.98-10.48,32.82-14.74,51.71-7.04,31.28-8.73,55.69-11.3,92.65l-.28,4.12c-.53,7.48-1.02,14.62-1.49,21.44-.87,12.62-1.67,24.15-2.42,34.6-.02,.33-.05,.66-.07,.99-.34-.03-.67-.07-1-.11,.03-.33,.05-.66,.07-1,.75-10.43,1.55-21.94,2.42-34.55,.47-6.82,.97-13.96,1.49-21.44l.28-4.12c2.57-37,4.27-61.45,11.33-92.8,4.25-18.86,9.34-36.67,14.7-51.66,.11-.32,.23-.64,.34-.96,.34,.05,.68,.11,1.01,.17Z"/>
    <path class="cls-1" d="M127.62,2.63c-.1,.31-.2,.63-.3,.95-4.7,14.65-9.35,32.85-13.59,53.33-6.42,31.02-8.45,56.82-11.26,92.53l-.37,4.62c-.61,7.73-1.18,15.09-1.73,22.08-.89,11.42-1.71,21.9-2.49,31.47-.02,.33-.05,.66-.08,.99-.33,0-.66-.03-.99-.06,.03-.33,.05-.66,.08-.99,.78-9.57,1.6-20.05,2.49-31.49,.54-6.99,1.12-14.35,1.73-22.08l.36-4.62c2.82-35.75,4.85-61.57,11.28-92.65,4.24-20.47,8.89-38.67,13.58-53.34,.1-.32,.21-.64,.31-.95,.33,.06,.66,.13,.98,.21Z"/>
    <path class="cls-1" d="M132.37,3.84c-.09,.32-.18,.64-.27,.96-3.97,14.1-8.09,32.41-12.31,54.73-5.75,30.4-8,55.89-11.11,91.19l-.56,6.34c-.65,7.41-1.27,14.47-1.86,21.19-.94,10.7-1.8,20.54-2.61,29.55-.04,.34-.07,.67-.09,1-.34,.01-.68,0-1.01,0,.03-.33,.06-.66,.09-1,.82-9.03,1.68-18.9,2.62-29.63,.59-6.72,1.21-13.78,1.87-21.19l.55-6.34c3.12-35.32,5.37-60.84,11.12-91.28,4.23-22.34,8.36-40.67,12.34-54.81,.09-.33,.18-.64,.27-.96,.32,.08,.64,.17,.96,.26Z"/>
    <path class="cls-1" d="M137,5.26c-.08,.32-.16,.64-.24,.97-3.85,15.87-7.49,35.9-10.92,55.92-4.98,29.1-7.5,54.87-10.68,87.5l-1.02,10.4c-.66,6.66-1.28,13.02-1.87,19.1-1.01,10.31-1.93,19.81-2.81,28.53-.03,.34-.07,.67-.1,1-.34,.02-.67,.04-1,.04,.03-.33,.06-.66,.1-1,.88-8.75,1.81-18.29,2.82-28.66,.59-6.09,1.21-12.45,1.86-19.1l1.02-10.41c3.19-32.65,5.71-58.44,10.7-87.57,3.43-20.07,7.08-40.14,10.95-56.06,.07-.33,.15-.65,.23-.97,.32,.09,.64,.2,.96,.31Z"/>
    <path class="cls-1" d="M141.54,6.88c-.08,.33-.14,.66-.21,1-2.87,14.2-5.7,32.64-8.98,53.97l-.45,2.91c-4.07,26.5-6.57,49.88-9.73,79.49-.64,6-1.3,12.25-2.01,18.8-.6,5.54-1.18,10.88-1.73,16.02-1.09,10.16-2.1,19.53-3.06,28.13-.03,.34-.07,.69-.11,1.03-.34,.04-.68,.07-1.02,.09,.04-.34,.07-.67,.11-1.01,.96-8.66,1.98-18.1,3.08-28.35,.56-5.13,1.13-10.47,1.73-16.02,.71-6.55,1.38-12.79,2.02-18.8,3.16-29.61,5.66-53.01,9.73-79.53l.45-2.91c3.29-21.42,6.14-39.93,9.03-54.18,.07-.34,.14-.67,.2-1,.32,.11,.63,.24,.95,.36Z"/>
    <path class="cls-1" d="M145.99,8.72c-.06,.33-.11,.67-.16,1.01-1.56,9.63-3.08,21.26-4.8,34.43-.96,7.38-1.95,15.01-3.07,23.22-2.89,21.14-5.09,40.47-7.64,62.85-1.28,11.26-2.61,22.89-4.15,35.82l-1.43,12.07c-1.21,10.22-2.32,19.62-3.37,28.26-.04,.34-.08,.69-.13,1.03-.34,.07-.68,.12-1.02,.17,.04-.34,.08-.68,.12-1.03,1.06-8.71,2.19-18.22,3.41-28.55l1.43-12.07c1.54-12.92,2.86-24.56,4.14-35.81,2.56-22.39,4.76-41.73,7.65-62.87,1.12-8.21,2.11-15.84,3.07-23.22,1.73-13.29,3.26-25.02,4.84-34.71,.06-.35,.11-.69,.17-1.02,.31,.13,.63,.27,.94,.42Z"/>
    <path class="cls-1" d="M150.4,10.77c-.04,.35-.08,.7-.13,1.05-.82,6.8-1.62,14.61-2.49,23.27-1.05,10.36-2.24,22.11-3.77,34.91-1.21,10.17-2.35,20.06-3.5,30.07-2.42,21.04-4.93,42.79-8.32,68.97l-.93,7.21c-1.35,10.47-2.59,20.1-3.76,28.92-.05,.35-.1,.7-.14,1.05-.35,.08-.7,.16-1.05,.22,.05-.34,.09-.69,.14-1.04,1.2-8.98,2.46-18.74,3.82-29.28l.93-7.21c3.39-26.17,5.89-47.92,8.31-68.95,1.16-10.02,2.3-19.9,3.51-30.08,1.52-12.79,2.71-24.53,3.76-34.89,.9-8.81,1.71-16.75,2.54-23.64,.05-.36,.09-.71,.13-1.05,.32,.15,.63,.31,.95,.47Z"/>
    <path class="cls-1" d="M154.79,13.08c-.03,.36-.06,.73-.08,1.1-.39,4.71-.75,9.91-1.14,15.56-.87,12.51-1.85,26.69-3.5,42.87-3.46,33.87-6.64,62.31-11.86,99.43l-.21,1.46c-1.52,10.81-2.93,20.81-4.26,30.01-.05,.37-.11,.73-.16,1.09-.35,.11-.7,.21-1.05,.3,.05-.36,.1-.72,.15-1.08,1.36-9.33,2.79-19.47,4.33-30.46l.21-1.46c5.21-37.1,8.4-65.54,11.85-99.39,1.65-16.16,2.64-30.33,3.5-42.84,.41-5.83,.78-11.19,1.17-16.03,.03-.37,.06-.74,.1-1.1,.32,.18,.63,.35,.95,.54Z"/>
    <path class="cls-1" d="M159.2,15.67c-.02,.37-.03,.75-.05,1.14-.12,2.96-.23,6.13-.35,9.48-.48,13.37-1.07,30.01-2.68,48.94-2.92,34.34-6.48,64.19-11.89,99.8-1.44,9.48-2.78,18.24-4.06,26.32-.06,.38-.11,.76-.18,1.14-.36,.14-.71,.26-1.07,.38,.06-.37,.12-.75,.18-1.13,1.3-8.23,2.67-17.17,4.14-26.86,5.41-35.59,8.97-65.42,11.89-99.74,1.61-18.9,2.2-35.52,2.67-48.88,.12-3.57,.24-6.93,.37-10.06,.02-.38,.03-.75,.05-1.13,.33,.19,.66,.39,.98,.6Z"/>
    <path class="cls-1" d="M163.65,18.6c-.01,.4-.01,.8,0,1.21-.01,1.34-.01,2.72-.01,4.14,0,14.51-.01,32.58-1.46,53.9-2.22,32.55-5.9,63.45-11.94,100.18-1.19,7.23-2.32,14.1-3.42,20.59-.07,.4-.14,.79-.2,1.18-.36,.17-.73,.33-1.1,.48,.07-.39,.14-.78,.2-1.18,1.14-6.68,2.31-13.76,3.54-21.23,6.02-36.7,9.7-67.57,11.92-100.09,1.45-21.28,1.46-39.33,1.46-53.83,0-1.66,0-3.27,.01-4.83-.01-.41-.01-.81,0-1.21,.34,.22,.67,.45,1,.69Z"/>
    <path class="cls-1" d="M168.23,80.46c-1.65,32.13-5.34,63.14-11.97,100.57-.86,4.85-1.7,9.56-2.53,14.13-.07,.42-.15,.84-.23,1.26-.37,.21-.74,.4-1.12,.6,.08-.42,.15-.84,.23-1.26,.87-4.82,1.76-9.79,2.67-14.91,6.61-37.38,10.3-68.36,11.96-100.44,1.21-23.4,.47-43.38-.06-57.99v-.12c-.01-.39-.03-.78-.04-1.17,.35,.26,.69,.52,1.03,.79,0,.11,.01,.23,.01,.34l.03,.96c.53,14.55,1.21,34.25,.02,57.24Z"/>
    <path class="cls-1" d="M174.29,83.08c-1.12,32.11-4.83,63.25-12.01,100.95-.44,2.3-.87,4.56-1.3,6.77-.09,.46-.18,.92-.27,1.37-.38,.24-.76,.49-1.15,.72,.08-.44,.17-.88,.26-1.33,.48-2.52,.98-5.09,1.48-7.72,7.17-37.65,10.87-68.73,11.99-100.8,.79-22.8-.36-42.02-1.44-56.81-.03-.47-.07-.93-.1-1.39,.36,.29,.72,.6,1.07,.91h0c.03,.48,.07,.95,.1,1.43,1.05,14.68,2.15,33.57,1.37,55.9Z"/>
    <path class="cls-1" d="M180.35,85.7c-.58,31.39-4.3,63.05-11.68,99.5-.1,.51-.2,1.01-.31,1.52-.4,.32-.81,.63-1.22,.94,.06-.28,.11-.56,.17-.84,.04-.22,.09-.43,.13-.65,7.53-36.88,11.32-68.83,11.91-100.49,.39-21.78-1.13-40.58-2.64-54.96h-.01c-.05-.54-.1-1.05-.16-1.56,.38,.36,.75,.72,1.12,1.1h0c.05,.52,.11,1.05,.16,1.58,1.47,14.24,2.91,32.64,2.52,53.86Z"/>
    <path class="cls-1" d="M186.4,88.31c-.06,28.75-3.11,57.51-9.54,89.61h0c-.11,.58-.22,1.15-.34,1.73-.42,.41-.83,.81-1.26,1.19,.12-.56,.23-1.12,.34-1.68h.01c6.61-32.62,9.74-61.74,9.8-90.85,.04-20.49-1.68-38.08-3.55-52.15h0c-.08-.6-.16-1.19-.23-1.77,.4,.44,.79,.89,1.18,1.34,.08,.59,.16,1.19,.23,1.8h0c1.8,13.85,3.41,30.97,3.37,50.78Z"/>
    <path class="cls-1" d="M185.59,168.13h0c-.12,.7-.25,1.39-.39,2.08-.42,.53-.85,1.05-1.32,1.58,.14-.67,.27-1.34,.39-2.01,5.19-27.49,7.55-53.47,7.19-78.84-.27-18.39-2.04-34.58-4.05-47.88h-.01c-.1-.72-.21-1.43-.32-2.12,.43,.56,.85,1.12,1.26,1.69,.11,.71,.22,1.42,.32,2.14,1.92,12.98,3.55,28.56,3.8,46.16,.35,24.87-1.9,50.32-6.87,77.2Z"/>
    <path class="cls-1" d="M194.87,154.11c-.14,.92-.28,1.85-.43,2.78h0c-.44,.78-.9,1.52-1.36,2.27,.14-.88,.28-1.76,.41-2.63,0,0,0-.01,.01-.01,3.32-21.47,4.64-42.29,4.01-62.94-.47-15.38-2.04-29.26-3.94-41.19-.01,0-.01-.01-.01-.01-.14-.9-.28-1.78-.43-2.66,.48,.76,.94,1.53,1.38,2.3,.15,.91,.3,1.84,.44,2.78h0c1.73,11.37,3.12,24.41,3.56,38.75,.61,19.89-.59,39.94-3.64,60.56Z"/>
    <path class="cls-1" d="M204.17,130.95h0c-.11,1.63-.23,3.25-.37,4.87h0c-.42,1.34-.87,2.67-1.36,3.97,.14-1.4,.26-2.79,.38-4.19h0c1.1-13.28,1.35-26.42,.75-39.39-.48-10.26-1.47-19.85-2.73-28.64-.2-1.43-.41-2.84-.63-4.23,.57,1.31,1.1,2.64,1.61,3.97,0,.01,.01,.01,.01,.02,.22,1.57,.44,3.17,.64,4.8,.96,7.5,1.7,15.54,2.09,24.03,.54,11.47,.4,23.08-.39,34.79Z"/>
  </g>
</svg>